<svg xmlns="http://www.w3.org/2000/svg" viewBox="0 0 512 512" role="img" aria-labelledby="title desc">
  <title id="title">Love Story heart icon</title>
  <desc id="desc">A modern romantic heart on a soft blush background.</desc>
  <defs>
    <linearGradient id="bg" x1="88" y1="64" x2="424" y2="448" gradientUnits="userSpaceOnUse">
      <stop stop-color="#fff7fb"/>
      <stop offset="1" stop-color="#ffe4ec"/>
    </linearGradient>
    <linearGradient id="heart" x1="139" y1="134" x2="380" y2="394" gradientUnits="userSpaceOnUse">
      <stop stop-color="#fb7185"/>
      <stop offset=".54" stop-color="#e11d48"/>
      <stop offset="1" stop-color="#be123c"/>
    </linearGradient>
    <filter id="shadow" x="76" y="96" width="360" height="360" color-interpolation-filters="sRGB" filterUnits="userSpaceOnUse">
      <feDropShadow dx="0" dy="22" stdDeviation="24" flood-color="#be123c" flood-opacity=".22"/>
    </filter>
  </defs>
  <rect width="512" height="512" rx="116" fill="url(#bg)"/>
  <path
    fill="url(#heart)"
    filter="url(#shadow)"
    d="M256 405c-8.7 0-16.8-3.7-22.7-9.1C143.4 314.1 96 270.4 96 201.6 96 145 138.4 104 191.4 104c30.1 0 56.1 13.9 72.6 35.7C280.5 117.9 306.5 104 336.6 104 389.6 104 432 145 432 201.6c0 68.8-47.4 112.5-137.3 194.3-5.9 5.4-14 9.1-22.7 9.1H256Z"
  />
  <path
    fill="#fff"
    fill-opacity=".78"
    d="M178.4 153.4c-22.6 0-42.2 18.8-42.2 46.6 0 7.1-5.7 12.8-12.8 12.8s-12.8-5.7-12.8-12.8c0-41.7 31.2-72.2 67.8-72.2 7.1 0 12.8 5.7 12.8 12.8s-5.7 12.8-12.8 12.8Z"
  />
</svg>